<?xml version="1.0" encoding="utf-8"?>
<!-- Generator: Adobe Illustrator 27.9.4, SVG Export Plug-In . SVG Version: 9.03 Build 54784)  -->
<svg version="1.1" id="Calque_1" xmlns="http://www.w3.org/2000/svg" xmlns:xlink="http://www.w3.org/1999/xlink" x="0px" y="0px"
	 viewBox="0 0 1917.4 278.4" style="enable-background:new 0 0 1917.4 278.4;" xml:space="preserve">
<style type="text/css">
	.st0{fill:#CCFF7B;}
</style>
<g>
	<path class="st0" d="M1870.1,75.9c-8.5-26.3-13.8-55.8-29.6-75.9c-2.1,50.5-42.6,89.7-82.2,88.1c-39.6-1.6-75-36.5-94.5-80.6
		c-4.9,26.3-9.9,53.2-21.3,75.9c-11.4,22.8-30.5,41-51.7,40.8c-30.7-0.3-52.3-36.5-76-61.5c-4-4.2-8.7-8.4-13.9-8
		c-6.3,0.6-10.9,7.6-15,13.9c-19.2,29.9-44.6,54.6-74.1,63.3c-36.8,10.9-76-4.2-107.7-30.4c-31.8-26.2-57.4-62.6-82.6-98.6
		c-2.2,21.5-4.5,43.6-12.7,62.6c-8.2,19-23.9,34.3-40.9,32.6c-8.5-0.8-16.3-5.7-23.9-10.5c-25.4-15.9-50.7-31.9-76.1-47.8
		c-14.2,44.4-53.3,69.5-90.8,70.6c-6.2,0.2-12.4-0.2-18.5-1c-6.1,0.8-12.3,1.2-18.5,1c-37.5-1.1-76.6-26.2-90.8-70.6
		c-25.4,15.9-50.7,31.9-76.1,47.8c-7.6,4.8-15.5,9.7-23.9,10.5c-16.9,1.7-32.6-13.7-40.9-32.6S698,24.5,695.8,3
		c-25.2,36-50.9,72.4-82.6,98.6c-31.8,26.2-70.9,41.4-107.7,30.4c-29.5-8.7-54.9-33.4-74.1-63.3c-4-6.3-8.6-13.4-15-13.9
		c-5.2-0.5-9.9,3.7-13.9,8c-23.7,25-45.3,61.1-76,61.5c-21.1,0.2-40.3-18.1-51.7-40.8c-11.4-22.8-16.4-49.6-21.3-75.9
		c-19.5,44-55,79-94.5,80.6C119.5,89.7,79,50.5,76.9,0c-15.8,20.1-21,49.6-29.6,75.9c-8.2,25.3-25,53.7-47.3,54.4v148h958.7h958.7
		v-148C1895.1,129.6,1878.3,101.3,1870.1,75.9z"/>
</g>
</svg>
