<?xml version="1.0" encoding="UTF-8"?>
<svg xmlns="http://www.w3.org/2000/svg" version="1.1" viewBox="0 0 24 24">
  <defs>
    <style>
      .cls-1 {
        fill: #fff;
      }
    </style>
  </defs>
  <!-- Generator: Adobe Illustrator 28.6.0, SVG Export Plug-In . SVG Version: 1.2.0 Build 709)  -->
  <g>
    <g id="Layer_1">
      <path class="cls-1" d="M9,18c-.6,0-1-.2-1.4-.6-.4-.4-.6-.9-.6-1.4V4c0-.6.2-1,.6-1.4s.9-.6,1.4-.6h9c.6,0,1,.2,1.4.6s.6.9.6,1.4v12c0,.6-.2,1-.6,1.4-.4.4-.9.6-1.4.6h-9ZM9,16h9V4h-9v12ZM5,22c-.6,0-1-.2-1.4-.6-.4-.4-.6-.9-.6-1.4V6h2v14h11v2H5ZM9,16V4v12Z"/>
    </g>
  </g>
</svg>