<?xml version="1.0" encoding="UTF-8"?>
<svg xmlns="http://www.w3.org/2000/svg" version="1.1" viewBox="0 0 2284.3 115.7">
  <defs>
    <style>
      .cls-1 {
        fill: #12e5e9;
      }

      .cls-2 {
        opacity: .5;
      }
    </style>
  </defs>
  <!-- Generator: Adobe Illustrator 28.6.0, SVG Export Plug-In . SVG Version: 1.2.0 Build 709)  -->
  <g>
    <g id="Calque_1">
      <g class="cls-2">
        <path class="cls-1" d="M1116.5,44.1c-16.9-18.4-46-27.3-67.8-15.1-24.9,13.8-30.7,46.4-33.8,74.6-9.5-30.5-19.8-62.5-43.2-84.2-23.4-21.7-64.4-28-86.1-4.5-19.4,20.9-15.2,53.4-9.2,81.6-5.7-26.1-15-52.6-34.7-70.5-20.4-18.5-54.9-24-75.2-5.4-18.6,17.1-18.4,44.8-13.9,70.7-3.7-16.8-8.6-33.3-18.3-47.3-12.7-18.4-35.9-31.5-57.4-25.5-18.3,5.1-31,23-34.7,41.7-1.9,9.4-1.8,19-.6,28.5-6.3-20.7-16.4-40.1-31.7-55.2-22-21.8-56-33-85.1-22.5-20.7,7.5-37.2,25.7-42.6,47-1.5,5.8-2.1,11.8-1.9,17.8-3.9-7.3-8.5-14.1-14.1-20.2-16.2-17.6-43.4-27.5-64.7-16.6-25.8,13.3-30.1,47.3-30.7,76.6h771.4c0-.9,0-1.7-.2-2.6-2-24.8-8.6-50.5-25.5-68.9Z"/>
        <path class="cls-1" d="M223.3,34.6c-23.3-17.1-60-11.4-77.1,11.8-10.4,14.1-13.1,31.3-12.4,49.1-1.8-8-4.2-15.8-7.5-23.4-8.6-19.6-24.8-37.1-45.7-41.7-29.1-6.5-59.2,14.9-71.1,42.4C5.1,83.1,1.2,99.2,0,115.7h256c-2.9-30.2-8.4-63.4-32.7-81.1Z"/>
        <path class="cls-1" d="M314.9,20.7c-21.2-.4-39.8,16.1-48.5,35.5-8.3,18.5-9.4,39.2-10,59.5h114.2c-.4-20-1.2-40.4-9-58.8-8.1-19.2-25.9-35.8-46.7-36.2Z"/>
        <path class="cls-1" d="M1882.8,39c-21.3-10.9-48.5-1.1-64.7,16.6-5.6,6.1-10.2,12.9-14.1,20.2,0-6-.5-12-1.9-17.8-5.4-21.3-21.9-39.5-42.6-47-29.1-10.5-63.1.7-85.1,22.5-15.3,15.1-25.4,34.5-31.7,55.2,1.2-9.5,1.2-19.1-.6-28.5-3.7-18.7-16.4-36.6-34.7-41.7-21.5-6-44.7,7.1-57.4,25.5-9.7,14-14.6,30.5-18.3,47.3,4.5-25.9,4.7-53.6-13.9-70.7-20.3-18.6-54.8-13.2-75.2,5.4-19.7,17.9-29,44.4-34.7,70.5,6.1-28.1,10.2-60.6-9.2-81.6-21.7-23.4-62.6-17.1-86.1,4.5-23.4,21.7-33.8,53.7-43.2,84.2-3.1-28.3-8.9-60.8-33.8-74.6-21.8-12.1-50.9-3.3-67.8,15.1s-23.5,44.1-25.5,69c0,.8,0,1.7-.2,2.6h771.4c-.5-29.3-4.9-63.4-30.7-76.7Z"/>
        <path class="cls-1" d="M2274.8,72.8c-11.9-27.5-42-48.9-71.3-42.5-20.9,4.6-37.1,22.1-45.7,41.7-3.3,7.5-5.7,15.4-7.5,23.4.7-17.8-2-35-12.4-49.1-17.1-23.3-53.8-28.9-77.1-11.8-24.3,17.8-29.7,50.9-32.7,81.1h256c-1-16.4-4.9-32.5-9.3-42.8Z"/>
        <path class="cls-1" d="M1969.4,20.7c-20.8.4-38.5,17-46.7,36.2-7.8,18.4-8.6,38.8-9,58.8h114.2c-.7-20.3-1.7-41-10-59.5-8.7-19.4-27.3-36-48.5-35.5Z"/>
      </g>
    </g>
  </g>
</svg>