<?xml version="1.0" encoding="UTF-8"?>
<svg xmlns="http://www.w3.org/2000/svg" version="1.1" xmlns:xlink="http://www.w3.org/1999/xlink" viewBox="0 0 686.9 514.2">
  <defs>
    <style>
      .cls-1 {
        fill: #fff;
        opacity: .5;
      }

      .cls-2 {
        fill: url(#linear-gradient);
      }
    </style>
    <linearGradient id="linear-gradient" x1="294.5" y1="514.4" x2="294.5" y2="209.4" gradientUnits="userSpaceOnUse">
      <stop offset="0" stop-color="#fff"/>
      <stop offset=".5" stop-color="#c9feff"/>
    </linearGradient>
  </defs>
  <!-- Generator: Adobe Illustrator 28.6.0, SVG Export Plug-In . SVG Version: 1.2.0 Build 709)  -->
  <g>
    <g id="Layer_1">
      <g id="Calque_1">
        <g>
          <path class="cls-1" d="M684.9,514.2c-5.5-17.3-15.8-33-30.6-43.2-16.5-11.4-38.9-14.8-57.5-7.9-.5.2-.9-.4-.5-.8,11.1-11.3,14.1-31,6.7-45.8-9.5-19-31.2-29.3-52.4-31-16.7-1.3-33.3,1.9-49.7,6-.6.1-.9-.7-.4-.9,14-7.9,23.2-24.7,22.5-41.1-.9-21-15.4-39.9-34-49.6-17.6-9.2-38.3-11-58-8.5-.6.1-.8-.7-.3-1,13.7-7.2,21.9-23,22.8-38.6,1-16.7-5.1-33.2-13.5-47.7-6.6-11.5-15.5-22.8-28.3-26.3-14.8-4-30.8,4.1-40.5,15.9-7,8.6-11.5,18.9-15.1,29.6-.2.6-1.1.4-1-.3,4.8-21.5,7.9-43.8.9-64.4-8.3-24.6-37.1-44.1-60.5-32.9-12.4,5.9-19.6,18-24.8,31-.2.6-1.1.3-1-.3,4.3-23.1.6-47.7-10.6-68.3-1.8-3.3-4-6.6-7.3-8.4-3.5-1.8-7.6-1.5-11.5-.8-17.4,3.4-32.7,16.1-39.3,32.5-.2.5-1,.4-1-.2.1-37.8-26.3-74.5-62.4-86-8.1-2.6-16.8-4-25.1-2.3-19,4-30.7,22.4-39.9,39.8-.3.5-1,.3-1-.3C74.1,31,44.2,1.1,12.3,1.9c-4.5.2-8.5.7-12.3,1.6v510.7h684.9Z"/>
          <path class="cls-2" d="M589,514.2c-1.8-14.8-7.9-29.9-20.4-37.9-12.7-8.2-32.8-5.5-39.4,8.1-4-17.4-14.5-35-31.6-40.3-13.3-4.1-29.6,3.5-34.8,15.4.9-11.1-.2-22.3-4.4-32.5-5.6-13.6-17.7-25.2-32.2-27.4-14.6-2.3-30.9,6.6-34.5,20.9,4.4-14.8,5.1-31.1-.6-45.5s-18.6-26.3-33.9-28.4c-12.4-1.7-25.7,4.1-32.5,14.3,6.6-19.5-.6-43.5-17.8-55.1-19.7-13.3-49.3-8.5-63.8,10.2,4.7-22.3-4.8-48.5-25.7-57.8-20.9-9.3-50,5.8-50.1,28.7,1.4-22.4-14.5-44.7-36.2-50.5s-46.7,5.8-56.2,26.1c2.9-29.1-26.1-56.9-55-52.7-7,1-13.8,3.8-19.9,7.8v296.8h589v-.2Z"/>
          <path class="cls-1" d="M400.1,514.2c-1.2-10-5.4-20.3-13.8-25.8-8.7-5.6-22.3-3.8-26.8,5.5-2.7-11.8-9.8-23.8-21.5-27.4-9-2.8-20.1,2.4-23.7,10.4.6-7.5-.1-15.1-3-22.1-3.8-9.3-12-17.1-21.9-18.6s-21,4.5-23.4,14.2c3-10.1,3.5-21.1-.4-30.9s-12.6-17.9-23-19.3c-8.4-1.2-17.5,2.8-22.1,9.7,4.5-13.2-.4-29.5-12.1-37.4-13.3-9-33.5-5.8-43.3,7,3.2-15.2-3.3-33-17.5-39.3s-34,4-34,19.5c1-15.2-9.8-30.4-24.6-34.3-14.7-3.9-31.7,3.9-38.2,17.7,2-19.8-17.7-38.6-37.4-35.8-4.8.7-9.4,2.6-13.5,5.3v201.6h400.2,0Z"/>
        </g>
      </g>
    </g>
  </g>
</svg>