<?xml version="1.0" encoding="UTF-8"?>
<svg xmlns="http://www.w3.org/2000/svg" version="1.1" viewBox="0 0 30 30">
  <defs>
    <style>
      .cls-1 {
        fill: #fff;
      }
    </style>
  </defs>
  <!-- Generator: Adobe Illustrator 28.6.0, SVG Export Plug-In . SVG Version: 1.2.0 Build 709)  -->
  <g>
    <g id="Layer_1">
      <path class="cls-1" d="M20.4,1.8h-10.8C5.3,1.8,1.8,5.3,1.8,9.6v10.8c0,4.3,3.5,7.8,7.8,7.8h10.8c4.3,0,7.8-3.5,7.8-7.8v-10.8c0-4.3-3.5-7.8-7.8-7.8ZM15,21.6c-3.6,0-6.6-3-6.6-6.6s3-6.6,6.6-6.6,6.6,3,6.6,6.6-3,6.6-6.6,6.6ZM22.2,9c-.7,0-1.2-.5-1.2-1.2s.5-1.2,1.2-1.2,1.2.5,1.2,1.2-.5,1.2-1.2,1.2Z"/>
      <path class="cls-1" d="M20.4,15c0,3-2.4,5.4-5.4,5.4s-5.4-2.4-5.4-5.4,2.4-5.4,5.4-5.4,5.4,2.4,5.4,5.4Z"/>
    </g>
  </g>
</svg>