<?xml version="1.0" encoding="UTF-8"?>
<svg xmlns="http://www.w3.org/2000/svg" version="1.1" viewBox="0 0 680.9 124">
  <defs>
    <style>
      .cls-1 {
        fill: #a4feff;
      }
    </style>
  </defs>
  <!-- Generator: Adobe Illustrator 28.6.0, SVG Export Plug-In . SVG Version: 1.2.0 Build 709)  -->
  <g>
    <g id="Calque_1">
      <g>
        <path class="cls-1" d="M-187.4,76.8c13.1,19.7,35.8,29.3,52.7,16.2,19.4-14.8,23.9-49.7,26.3-80,7.4,32.7,15.4,67,33.6,90.3,23.6,30.1,62.2,22.4,67,4.8,2.5-9.1-5.2-15.5-6.6-37.1C-16.2,43.4-6.3,13.8.6,14.3c9,.7,3.6,53.1,25.7,81.8,16.7,21.7,44.5,23.5,58.5,5.8,14.5-18.3,14.3-48,10.8-75.8,2.9,18,6.7,35.7,14.2,50.7,9.9,19.7,27.9,33.8,44.6,27.3,14.2-5.5,24.1-24.7,27-44.7,1.5-10.1,1.4-20.4.5-30.6,4.9,22.2,12.8,43,24.7,59.2,17.1,23.4,43.6,35.4,66.2,24.1,16.1-8,28.9-27.6,33.1-50.4,1.2-6.2,1.6-12.7,1.5-19.1,3,7.8,6.6,15.1,11,21.7,12.6,18.9,33.8,29.5,50.3,17.8,20.1-14.3,23.4-50.7,23.9-82.1H-207.4c0,1,0,1.8.2,2.8,1.6,26.6,6.7,54.1,19.8,73.9Z"/>
        <path class="cls-1" d="M507.2,86.9c18.1,18.3,46.7,12.2,60-12.7,8.1-15.1,10.2-33.6,9.6-52.6,1.4,8.6,3.3,16.9,5.8,25.1,6.7,21,19.3,39.8,35.5,44.7,22.6,7,46-16,55.3-45.5,3.4-11,6.5-28.3,7.4-46h-199.1c2.3,32.4,6.5,68,25.4,86.9Z"/>
        <path class="cls-1" d="M436,101.8c16.5.4,31-17.3,37.7-38.1C480.2,44,481,21.8,481.5,0h-88.8c.3,21.4.9,43.3,7,63,6.3,20.6,20.1,38.4,36.3,38.8Z"/>
        <path class="cls-1" d="M-783.4,82.2c16.6,11.7,37.7,1.2,50.3-17.8,4.4-6.5,7.9-13.8,11-21.7,0,6.4.4,12.9,1.5,19.1,4.2,22.8,17,42.3,33.1,50.4,22.6,11.3,49.1-.8,66.2-24.1,11.9-16.2,19.8-37,24.7-59.2-.9,10.2-.9,20.5.5,30.6,2.9,20,12.8,39.2,27,44.7,16.7,6.4,34.8-7.6,44.6-27.3,7.5-15,11.4-32.7,14.2-50.7-3.5,27.8-3.7,57.5,10.8,75.8,15.8,19.9,42.6,14.2,58.5-5.8,15.3-19.2,22.6-47.6,27-75.6-4.7,30.1-7.9,65,7.2,87.5,16.9,25.1,48.7,18.3,67-4.8,18.2-23.3,26.3-57.6,33.6-90.3,2.4,30.3,6.9,65.2,26.3,80,17,13,39.6,3.5,52.7-16.2,13.1-19.7,18.3-47.3,19.8-74,0-.9,0-1.8.2-2.8h-599.9c.4,31.4,3.8,68,23.9,82.2Z"/>
        <path class="cls-1" d="M-1088.3,46c9.3,29.5,32.7,52.4,55.5,45.6,16.3-4.9,28.9-23.7,35.5-44.7,2.6-8,4.4-16.5,5.8-25.1-.5,19.1,1.6,37.5,9.6,52.6,13.3,25,41.8,31,60,12.7,18.9-19.1,23.1-54.6,25.4-86.9h-199.1c.8,17.6,3.8,34.8,7.2,45.9Z"/>
        <path class="cls-1" d="M-850.8,101.8c16.2-.4,29.9-18.2,36.3-38.8,6.1-19.7,6.7-41.6,7-63h-88.8c.5,21.8,1.3,44,7.8,63.8,6.8,20.8,21.2,38.6,37.7,38.1Z"/>
      </g>
    </g>
  </g>
</svg>