<?xml version="1.0" encoding="utf-8"?>
<!-- Generator: Adobe Illustrator 27.9.4, SVG Export Plug-In . SVG Version: 9.03 Build 54784)  -->
<svg version="1.1" id="Calque_1" xmlns="http://www.w3.org/2000/svg" xmlns:xlink="http://www.w3.org/1999/xlink" x="0px" y="0px"
	 viewBox="0 0 680.9 79.3" style="enable-background:new 0 0 680.9 79.3;" xml:space="preserve">
<style type="text/css">
	.st0{fill:#0E478C;}
	.st1{fill:#1F5CB5;}
</style>
<path class="st0" d="M669,30c-9.3-1.3-5.6-21.2-13.2-27.7c-9.2,16.9-22.2,30.8-37.2,39.9c-3.4,2-6.9,3.9-10.7,4
	c-13.3,0.6-20.6-18-24.5-33.3c-4.4,10.7-14.3,17.7-24.1,17c-9.9-0.7-19.1-9-22.4-20.2c-5.4,13.2-22.6,12.4-31.1,1.8
	c-2.3-2.9-4.5-6.6-7.8-7.4c-10.4-2.6-11.8,22.7-22.4,23.8c-8.7,0.9-15.2-16.3-23-11.5c-2.4,1.5-3.6,4.6-5.3,7
	c-5.6,8-16.1,8.7-24,4.5c-7.9-4.3-13.9-12.4-19.7-20.3c-1.1,10.7-12.6,17.6-20.3,12.1c-4.5-3.2-8-9.8-13.2-9.4
	c-5.4,0.4-8.1,7.7-11.8,12.4c-4.5,5.7-11.3,7.9-17.9,7.3c-6.6,0.5-13.4-1.6-17.9-7.3c-3.7-4.7-6.4-12-11.8-12.4
	c-5.2-0.4-8.7,6.2-13.2,9.4c-7.7,5.5-19.2-1.4-20.3-12.1c-5.7,7.9-11.7,16-19.7,20.3c-7.9,4.3-18.4,3.6-24-4.5c-1.7-2.5-3-5.6-5.3-7
	c-7.8-4.8-14.3,12.4-23,11.5c-10.6-1-12-26.3-22.4-23.8c-3.3,0.8-5.5,4.5-7.8,7.4C166.6,22,149.3,22.8,144,9.7
	c-3.3,11.2-12.5,19.5-22.4,20.2c-9.9,0.7-19.8-6.3-24.1-17C93.6,28.2,86.3,46.8,73,46.2c-3.8-0.2-7.3-2-10.7-4
	c-15-9.1-27.9-23-37.2-39.9C17.5,8.8,21.2,28.8,11.9,30c-3.3,0.4-6.2-2.2-8.7-4.8c-1.1-1-2.1-2.1-3.2-3.1v57.2h680.9V22.1
	c-1.1,1-2.1,2.1-3.2,3.1C675.2,27.8,672.3,30.5,669,30z"/>
<path class="st1" d="M669,53.4c-9.3-0.8-5.6-14.1-13.2-18.4c-9.2,11.2-22.2,20.5-37.2,26.5c-3.4,1.4-6.9,2.6-10.7,2.7
	c-13.3,0.4-20.6-11.9-24.5-22.2c-4.4,7.1-14.3,11.7-24.1,11.3c-9.9-0.4-19.1-6-22.4-13.4c-5.4,8.7-22.6,8.2-31.1,1.2
	c-2.3-1.9-4.5-4.4-7.8-4.9c-10.4-1.7-11.8,15.1-22.4,15.8c-8.7,0.6-15.2-10.8-23-7.7c-2.4,1-3.6,3-5.3,4.7c-5.6,5.3-16.1,5.8-24,3
	c-7.9-2.8-13.9-8.2-19.7-13.5c-1.1,7.1-12.6,11.7-20.3,8c-4.5-2.1-8-6.5-13.2-6.2c-5.4,0.3-8.1,5.1-11.8,8.3
	c-4.5,3.8-11.3,5.2-17.9,4.9c-6.6,0.4-13.4-1.1-17.9-4.9c-3.7-3.1-6.4-8-11.8-8.3c-5.2-0.2-8.7,4.1-13.2,6.2
	c-7.7,3.7-19.2-0.9-20.3-8c-5.7,5.2-11.7,10.6-19.7,13.5s-18.4,2.4-24-3c-1.7-1.6-3-3.7-5.3-4.7c-7.8-3.2-14.3,8.2-23,7.7
	c-10.6-0.7-12-17.5-22.4-15.8c-3.3,0.5-5.5,3-7.8,4.9c-8.4,7-25.7,7.5-31.1-1.2c-3.3,7.4-12.5,13-22.4,13.4
	c-9.9,0.4-19.8-4.2-24.1-11.3C93.6,52.2,86.3,64.5,73,64.1c-3.8-0.1-7.3-1.3-10.7-2.7c-15-6-27.9-15.3-37.2-26.5
	c-7.6,4.3-3.9,17.6-13.2,18.4c-3.3,0.3-6.2-1.5-8.7-3.2c-1.1-0.7-2.1-1.4-3.2-2.1v31.2h680.9V48.1c-1.1,0.7-2.1,1.4-3.2,2.1
	C675.2,51.9,672.3,53.7,669,53.4z"/>
<path d="M9,32.3c3.1,0.1,5.8-1.7,7.5-4.8c3.4-6.3,2.4-16.2,6.6-21.8c5.3,9.1,11.6,17.4,18.9,24.5c7.1,7,15.7,14.2,24.6,17.3
	C82.7,53,91.9,34,96.6,18.1c5.5,9.1,14.8,14.8,24.3,13.9c9.6-0.9,17.9-7.9,22.3-17.8c5.8,8.3,16.4,9.2,24.6,5.1
	c2.4-1.2,4.6-2.8,6.5-4.9c2.6-2.8,5-8,8.8-8.2c4.3-0.2,6.8,6.3,8.6,9.9c2.1,4.3,4.3,9.3,8,12.1c3.9,2.9,8.3,2.1,12.1-0.6
	c3.8-2.8,8-9.6,12.7-9.8c3.5-0.2,5.2,4.4,7.2,7.2c1.9,2.7,4.4,4.6,7.1,5.9c14.9,7,27.8-6.3,37.3-18.8c3.1,8.6,12,13.9,19.6,10.9
	c5.2-2,8.6-9.9,14.1-10.5c5.8-0.6,9.2,9.6,13,13.5c4.3,4.4,10.1,6.4,15.7,6.4c5.8,0,11.4-0.2,16.6-3.6c5.2-3.5,7.4-10,11.9-14.3
	c5.8-5.6,10.9,3.5,15.5,6.9c8,5.9,19.1,0.7,22.6-9.2c8.5,11.3,18.8,22.5,32.4,20.3c2.9-0.5,5.7-1.6,8.2-3.5c3-2.3,4.5-5.7,6.9-8.8
	c4.6-5.8,10,1.4,13.8,4.9c3.6,3.3,7.9,6.3,12.6,4.6c4-1.5,6.7-5.9,8.8-10c2.1-4.1,4-10.2,7.7-12.7c5.4-3.6,10.1,6.7,14.1,9.8
	c8.5,6.7,21.8,7.1,28.5-2.5c4.4,9.9,12.8,16.9,22.3,17.8c9.5,0.9,18.8-4.8,24.3-13.9c4.7,15.9,13.9,34.9,30.1,29.3
	c9-3.1,17.5-10.4,24.6-17.3c7.2-7,13.5-15.3,18.9-24.5c3.9,5.3,3.4,14.5,6,20.6c1.2,2.9,3.2,5.1,5.9,5.8c4.3,1.2,8-2.1,11.2-5.2
	c0-1.6,0-3.2,0-4.8v-1c-0.9,0.9-1.8,1.7-2.6,2.6c-2.9,2.8-7.4,6.5-10.4,1.9c-1.6-2.5-2.1-5.9-2.7-8.9c-1.2-6.1-2.4-12.3-6.7-16.3
	c-0.8-0.8-2.1-0.1-2.6,0.8c-9.5,17.1-23,31.7-38.8,40.3c-7.9,4.3-15.3,2.6-20.9-5.4c-4.8-6.7-7.5-15.4-9.7-23.7
	c-0.5-1.8-2.7-2.3-3.4-0.5c-4.2,9.8-12.9,16.3-22.2,15.9c-9.4-0.4-17.9-8.1-21.2-18.5c-0.5-1.7-2.6-2.4-3.4-0.5
	c-5.4,12.4-20.7,10.3-28,1.7c-3.5-4.2-7.1-9.9-12.7-8.3c-3.5,1-5.9,4.7-7.8,8.1c-2.3,4.2-4,9.2-7.1,12.8c-3.9,4.5-8.1,2.5-12-1
	c-3.5-3.2-7-7.8-11.5-8.5c-5.9-1-8.1,5.4-11.6,9.6c-5.4,6.4-14.3,6.3-20.9,2.9c-7.9-4.1-13.8-12.3-19.4-19.9c-0.9-1.2-2.9-0.7-3.1,1
	c-0.8,5.8-4.4,10.2-9,11.8c-5.7,2-9.4-1.5-13.5-5.6c-3.3-3.3-7.1-6.2-11.6-4.6c-4.5,1.6-7,6.9-9.8,11c-4,5.7-9.6,8.4-15.7,8.4
	c-6.1,0-12.3-0.2-17.2-5.1c-3.7-3.7-5.7-9.5-9.8-12.7c-3.7-3-8.1-2.3-11.7,0.6c-4.6,3.7-7.9,9.4-14,8.6c-5.5-0.8-10.3-5.6-11.1-12.3
	c-0.2-1.7-2.3-2.2-3.1-1c-8.7,11.8-21.4,28.1-36,20.5c-3.4-1.8-5.2-4.7-7.4-8.1c-1.5-2.4-3.4-4.3-5.9-4.9c-4.2-1-7.8,2.4-10.9,5.3
	c-3.4,3.2-8,8.8-12.8,6.2c-3.8-2-5.8-7.5-7.8-11.5c-1.9-3.9-4-8.4-7.4-10.6c-4-2.6-8.3-0.6-11.4,2.9c-2.4,2.8-4.3,5.8-7.2,7.8
	c-2.7,1.9-5.9,3.1-9,3.5c-6.1,0.7-12.3-1.8-15.2-8.6c-0.8-1.9-2.9-1.1-3.4,0.5c-3.3,10.4-11.8,18.1-21.2,18.5
	c-9.3,0.4-17.9-6.1-22.2-15.9c-0.8-1.8-3-1.2-3.4,0.5c-2.1,8.4-4.9,17-9.7,23.7c-5.6,8-13,9.7-20.9,5.4C48,32.9,34.5,18.2,25,1.1
	c-0.5-0.9-1.7-1.6-2.6-0.8c-4.8,4.4-5.7,11.4-7.1,18c-0.6,2.8-1.3,6.7-3.4,8.5c-4,3.3-8.9-2.6-11.9-5.8v1c0,1.6,0,3.2,0,4.9
	C2.7,29.7,5.6,32.2,9,32.3z"/>
<g>
	<g>
		<path d="M7.3,67.2c4.4,0.8,7.9,5.3,12.8,3.6c4.3-1.5,5.7-6.5,6.3-10.5c-0.9,0.4-1.8,0.7-2.8,1.1c6.5,4.2,13.5,8,20.8,10.7
			c7.2,2.6,14.9,3.9,22.4,2.5c2.4-0.5,1.4-4.1-1-3.6c-7.1,1.4-14.2-0.1-20.9-2.6c-6.8-2.6-13.3-6.2-19.5-10.2
			c-0.9-0.6-2.6-0.1-2.8,1.1c-0.4,2.6-1.1,7.4-4.3,8.1c-1.7,0.3-3.3-0.6-4.7-1.4c-1.7-1-3.5-2-5.5-2.4C5.9,63.1,4.9,66.7,7.3,67.2
			L7.3,67.2z"/>
	</g>
</g>
<g>
	<g>
		<path d="M102.6,62.1c5.9,2.1,12.1,4.3,18.5,4.1c5.4-0.2,10.9-2,14.6-6c1.6-1.8-1-4.4-2.7-2.7c-7.7,8.4-20.3,4.2-29.4,1
			C101.3,57.7,100.4,61.3,102.6,62.1L102.6,62.1z"/>
	</g>
</g>
<g>
	<g>
		<path d="M177.7,51.8c3.1-1.1,6.6-0.1,8.6,2.4c1.3,1.6,1.5,3.6,2.5,5.3c1.1,1.7,2.8,2.9,4.8,3.3c4.1,0.9,8.9,0,12.9-0.9
			c4.5-1.1,8.8-2.9,12.8-5.2c2.1-1.2,0.2-4.5-1.9-3.2c-3.9,2.3-8.1,4-12.6,5c-2.1,0.5-4.3,0.8-6.5,0.9c-1.7,0.1-3.8,0.2-5.3-0.7
			c-1.7-1.1-1.9-3.4-2.7-5.1c-0.8-1.6-2-2.9-3.5-3.9c-2.9-2.1-6.8-2.7-10.2-1.5C174.5,48.9,175.5,52.6,177.7,51.8L177.7,51.8z"/>
	</g>
</g>
<g>
	<g>
		<path d="M273.9,55.6c3.5,3.4,8.1,5.3,13,5.5c2.3,0.1,4.7-0.2,7-1c2.5-0.9,4.7-2.2,7.1-3.1c2.4-0.9,4.6-1,6.8,0.3
			c2.2,1.3,4.1,3,6.5,4.1c4.5,2,9.4,2.8,14.4,2.7c5.8-0.1,11.5-1.1,17.1-2.3c2.4-0.5,1.4-4.1-1-3.6c-9,1.8-19.2,3.8-28.1,0.2
			c-4.4-1.8-7.7-6.2-12.8-5.8c-4.9,0.4-8.8,3.8-13.6,4.6c-4.9,0.8-10-0.9-13.5-4.3C274.8,51.2,272.2,53.9,273.9,55.6L273.9,55.6z"/>
	</g>
</g>
<g>
	<g>
		<path d="M403.8,50.8c-2.7,3.7-7.2,5.6-11.6,6.2c-5.8,0.8-11.6-0.4-17.2-1.6c-2.4-0.5-3.4,3.1-1,3.6c6.4,1.3,13,2.6,19.6,1.5
			c5.3-0.9,10.2-3.5,13.5-7.9c0.6-0.8,0.1-2.1-0.7-2.6C405.4,49.6,404.4,50,403.8,50.8L403.8,50.8z"/>
	</g>
</g>
<g>
	<g>
		<path d="M458.8,54.8c3.6,4.1,8.8,6.3,14.2,7.1c2.8,0.4,5.5,0.6,8.3,0.6c3,0,6.1-0.1,8.9-1.3c2.4-1,4.2-2.9,5.9-4.8
			c1.5-1.7,3.2-3.7,5.5-4.1c3-0.5,6.4,1.1,9,2.3c2.9,1.3,5.8,2.8,8.9,3.8c5.4,1.7,12.4,1.5,16.3-3.2c0.6-0.8,0.8-1.9,0-2.7
			c-0.7-0.7-2-0.8-2.7,0c-3.1,3.8-8.6,3.6-12.9,2.2c-5.7-1.8-10.9-5.7-17-6.1c-2.7-0.2-5.1,0.8-7.1,2.5c-1.8,1.5-3.1,3.4-4.8,4.9
			c-2,1.9-4.5,2.6-7.3,2.7c-2.5,0.1-5.1,0.1-7.7-0.1c-5.6-0.5-11.2-2.1-15-6.4C459.8,50.3,457.2,52.9,458.8,54.8L458.8,54.8z"/>
	</g>
</g>
<g>
	<g>
		<path d="M578.1,61.6c1.7,5.3,6.5,8.5,11.5,10.4c5.2,2.1,11,2.5,16.6,2.2c10.2-0.5,21.1-2.9,30-8c4.8-2.8,9.1-6.5,12-11.3
			c1.3-2-2-3.9-3.2-1.9c-4.8,7.7-13.2,12-21.6,14.5c-4.5,1.3-9.2,2.2-13.9,2.7c-5.1,0.5-10.3,0.5-15.3-0.7
			c-4.8-1.2-10.8-3.8-12.4-8.9C581,58.3,577.4,59.3,578.1,61.6L578.1,61.6z"/>
	</g>
</g>
</svg>
