<?xml version="1.0" encoding="UTF-8"?>
<svg xmlns="http://www.w3.org/2000/svg" version="1.1" xmlns:xlink="http://www.w3.org/1999/xlink" viewBox="0 0 680.9 79.3">
  <defs>
    <style>
      .cls-1 {
        fill: url(#linear-gradient-2);
      }

      .cls-2 {
        fill: url(#linear-gradient-4);
      }

      .cls-3 {
        fill: url(#linear-gradient-3);
      }

      .cls-4 {
        fill: url(#linear-gradient-5);
      }

      .cls-5 {
        fill: url(#linear-gradient-7);
      }

      .cls-6 {
        fill: url(#linear-gradient-6);
      }

      .cls-7 {
        fill: url(#linear-gradient);
      }
    </style>
    <linearGradient id="linear-gradient" x1="588.2" y1="80.6" x2="588.2" y2="2.5" gradientUnits="userSpaceOnUse">
      <stop offset="0" stop-color="#fff"/>
      <stop offset="1" stop-color="#fff" stop-opacity=".5"/>
    </linearGradient>
    <linearGradient id="linear-gradient-2" x1="99.4" y1="80.7" x2="99.4" y2="18.9" gradientUnits="userSpaceOnUse">
      <stop offset="0" stop-color="#fff"/>
      <stop offset="1" stop-color="#fff" stop-opacity=".5"/>
    </linearGradient>
    <linearGradient id="linear-gradient-3" x1="243.6" y1="80.7" x2="243.6" y2="16.2" gradientUnits="userSpaceOnUse">
      <stop offset="0" stop-color="#fff"/>
      <stop offset="1" stop-color="#fff" stop-opacity=".5"/>
    </linearGradient>
    <linearGradient id="linear-gradient-4" x1="1188" y1="80.7" x2="1188" y2="2.2" gradientUnits="userSpaceOnUse">
      <stop offset="0" stop-color="#fff"/>
      <stop offset="1" stop-color="#000"/>
    </linearGradient>
    <linearGradient id="linear-gradient-5" x1="1676.7" y1="80.6" x2="1676.7" y2="18.8" xlink:href="#linear-gradient-4"/>
    <linearGradient id="linear-gradient-6" x1="1532.6" y1="80.7" x2="1532.6" y2="16.2" xlink:href="#linear-gradient-4"/>
    <linearGradient id="linear-gradient-7" x1="199.1" y1="80.7" x2="199.1" y2="80.7" xlink:href="#linear-gradient-4"/>
  </defs>
  <!-- Generator: Adobe Illustrator 28.6.0, SVG Export Plug-In . SVG Version: 1.2.0 Build 709)  -->
  <g>
    <g id="Calque_1">
      <g>
        <path class="cls-7" d="M868.2,32.1c-13.1-12.5-35.8-18.5-52.7-10.2-19.4,9.4-23.9,31.5-26.3,50.6-7.4-20.7-15.4-42.4-33.6-57.1-23.6-19-62.2-14.2-67-3.1-2.5,5.7,5.2,9.8,6.6,23.5,1.8,17.4-8.2,36.2-15.1,35.9-9-.4-3.6-33.6-25.7-51.8-16.7-13.7-44.5-14.9-58.5-3.7-14.5,11.6-14.3,30.4-10.8,48-2.9-11.4-6.7-22.6-14.2-32.1-9.9-12.5-27.9-21.4-44.6-17.3-14.2,3.5-24.1,15.6-27,28.3-1.5,6.4-1.4,12.9-.5,19.3-4.9-14-12.8-27.2-24.7-37.4-17.1-14.8-43.6-22.4-66.2-15.3-16.1,5.1-28.9,17.4-33.1,31.9-1.2,3.9-1.6,8-1.5,12.1-3-5-6.6-9.6-11-13.7-12.6-11.9-33.8-18.7-50.3-11.3-20.1,9-23.4,32.1-23.9,52h599.9c0-.6,0-1.2-.2-1.8-1.6-16.8-6.7-34.3-19.8-46.7Z"/>
        <path class="cls-1" d="M173.5,25.6c-18.1-11.6-46.7-7.7-60,8-8.1,9.6-10.2,21.2-9.6,33.3-1.4-5.4-3.3-10.7-5.8-15.9-6.7-13.3-19.3-25.2-35.5-28.3-22.6-4.4-46,10.1-55.3,28.8C3.8,58.5.8,69.5-.2,80.7h199.1c-2.3-20.5-6.5-43-25.4-55Z"/>
        <path class="cls-3" d="M244.7,16.2c-16.5-.3-31,10.9-37.7,24.1-6.5,12.5-7.3,26.6-7.8,40.4h88.8c-.3-13.6-.9-27.4-7-39.9-6.3-13-20.1-24.3-36.3-24.6Z"/>
        <path class="cls-2" d="M1464.1,28.6c-16.6-7.4-37.7-.7-50.3,11.3-4.4,4.1-7.9,8.8-11,13.7,0-4.1-.4-8.1-1.5-12.1-4.2-14.4-17-26.8-33.1-31.9-22.6-7.1-49.1.5-66.2,15.3-11.9,10.2-19.8,23.4-24.7,37.4.9-6.4.9-13-.5-19.3-2.9-12.7-12.8-24.8-27-28.3-16.7-4.1-34.8,4.8-44.6,17.3-7.5,9.5-11.4,20.7-14.2,32.1,3.5-17.6,3.7-36.4-10.8-48-15.8-12.6-42.6-9-58.5,3.7-15.3,12.1-22.6,30.1-27,47.8,4.7-19.1,7.9-41.1-7.2-55.4-16.9-15.9-48.7-11.6-67,3.1-18.2,14.7-26.3,36.4-33.6,57.1-2.4-19.2-6.9-41.2-26.3-50.6-17-8.2-39.6-2.2-52.7,10.2-13.1,12.5-18.3,29.9-19.8,46.8,0,.5,0,1.2-.2,1.8h599.9c-.4-19.9-3.8-43-23.9-52Z"/>
        <path class="cls-4" d="M1769,51.6c-9.3-18.7-32.7-33.2-55.5-28.8-16.3,3.1-28.9,15-35.5,28.3-2.6,5.1-4.4,10.4-5.8,15.9.5-12.1-1.6-23.7-9.6-33.3-13.3-15.8-41.8-19.6-60-8-18.9,12.1-23.1,34.5-25.4,55h199.1c-.8-11.1-3.8-22-7.2-29Z"/>
        <path class="cls-6" d="M1531.5,16.2c-16.2.3-29.9,11.5-36.3,24.6-6.1,12.5-6.7,26.3-7,39.9h88.8c-.5-13.8-1.3-27.8-7.8-40.4-6.8-13.2-21.2-24.4-37.7-24.1Z"/>
      </g>
      <path class="cls-5" d="M198.9,80.7h.3"/>
    </g>
  </g>
</svg>