<?xml version="1.0" encoding="utf-8"?>
<!-- Generator: Adobe Illustrator 27.9.4, SVG Export Plug-In . SVG Version: 9.03 Build 54784)  -->
<svg version="1.1" id="Calque_1" xmlns="http://www.w3.org/2000/svg" xmlns:xlink="http://www.w3.org/1999/xlink" x="0px" y="0px"
	 viewBox="0 0 1164 129.6" style="enable-background:new 0 0 1164 129.6;" xml:space="preserve">
<style type="text/css">
	.st0{fill:#3E65C6;}
	.st1{fill:#274E9B;}
</style>
<path class="st0" d="M0,0h582h582v72.4c-3.3,0.3-6.6,1.1-9.6,2.4c-15,6.7-28,25.6-43.2,19.1c-8.5-3.6-11.8-13.7-18.2-20.3
	c-11.3-11.6-31-10.6-44.8-2.2c-13.8,8.4-23,22.5-31.8,36c-3.8-12.6-7.8-25.6-16.6-35.3c-8.8-9.7-23.9-15.1-35.5-8.8
	c-13.9,7.7-19.2,29.6-35.1,30.5c-15.2,0.8-22.4-18.3-34.7-27.4c-12.5-9.2-30.6-7.1-43.8,1c-13.2,8.1-22.7,20.9-31.8,33.5
	c9.7-15.2-2.4-37.5-19.9-41.9c-17.5-4.4-36.1,5.2-47.5,19.1c-11.4,14-17.1,31.6-22.5,48.8c-7.1-15.7-14.5-31.9-27.2-43.4
	c-12.8-11.5-32.5-17.2-47.5-8.9c-6.3,3.5-11.5,9.1-18.5,10.6c-20.9,4.5-31.3-28.9-52.4-32.5c-0.4-0.1-0.9-0.1-1.3-0.2
	c-0.4,0-0.9,0.1-1.3,0.2c-21.1,3.6-31.5,37-52.4,32.5c-7-1.5-12.2-7.2-18.5-10.6c-15.1-8.3-34.8-2.6-47.5,8.9
	c-12.8,11.5-20.2,27.7-27.2,43.4c-5.4-17.2-11.1-34.9-22.5-48.8c-11.4-14-30.1-23.6-47.5-19.1c-17.5,4.4-29.6,26.7-19.9,41.9
	c-9.1-12.5-18.6-25.4-31.8-33.5c-13.2-8.1-31.3-10.2-43.8-1c-12.3,9-19.5,28.2-34.7,27.4c-15.9-0.8-21.1-22.8-35.1-30.5
	c-11.5-6.3-26.6-1-35.5,8.8c-8.8,9.7-12.8,22.8-16.6,35.3c-8.8-13.6-18-27.6-31.8-36C102,63.1,82.3,62.1,71,73.7
	c-6.4,6.6-9.8,16.7-18.2,20.3c-15.1,6.5-28.1-12.4-43.2-19.1c-3-1.4-6.3-2.1-9.6-2.4V0z"/>
<path class="st1" d="M0,0h582h582v40.2c-3.3,0.2-6.6,0.6-9.6,1.4c-15,3.7-28,14.2-43.2,10.6c-8.5-2-11.8-7.6-18.2-11.2
	c-11.3-6.4-31-5.9-44.8-1.2c-13.8,4.7-23,12.5-31.8,20c-3.8-7-7.8-14.2-16.6-19.6c-8.8-5.4-23.9-8.4-35.5-4.9
	c-13.9,4.3-19.2,16.4-35.1,16.9c-15.2,0.4-22.4-10.2-34.7-15.2c-12.5-5.1-30.6-3.9-43.8,0.6C837.5,42,828.1,49.1,818.9,56
	c9.7-8.4-2.4-20.8-19.9-23.2c-17.5-2.5-36.1,2.9-47.5,10.6c-11.4,7.8-17.1,17.5-22.5,27.1c-7.1-8.7-14.5-17.7-27.2-24.1
	c-12.8-6.4-32.5-9.6-47.5-4.9c-6.3,1.9-11.5,5.1-18.5,5.9c-20.9,2.5-31.3-16-52.4-18c-0.4,0-0.9-0.1-1.3-0.1c-0.4,0-0.9,0.1-1.3,0.1
	c-21.1,2-31.5,20.5-52.4,18c-7-0.8-12.2-4-18.5-5.9c-15.1-4.6-34.8-1.4-47.5,4.9c-12.8,6.4-20.2,15.4-27.2,24.1
	c-5.4-9.5-11.1-19.3-22.5-27.1c-11.4-7.8-30.1-13.1-47.5-10.6c-17.5,2.5-29.6,14.8-19.9,23.2c-9.1-7-18.6-14.1-31.8-18.6
	c-13.2-4.5-31.3-5.7-43.8-0.6c-12.3,5-19.5,15.6-34.7,15.2c-15.9-0.5-21.1-12.6-35.1-16.9c-11.5-3.5-26.6-0.5-35.5,4.9
	c-8.8,5.4-12.8,12.6-16.6,19.6c-8.8-7.5-18-15.3-31.8-20C102,35,82.3,34.4,71,40.9c-6.4,3.7-9.8,9.2-18.2,11.2
	c-15.1,3.6-28.1-6.9-43.2-10.6c-3-0.8-6.3-1.2-9.6-1.4V0z"/>
<path d="M0,70.2c8.5,1,16.6,5.3,24.1,11c6.3,4.7,13.9,11.7,22.3,11.7c10.5,0,14.8-11.1,20.4-18.1c9.9-12.4,26.8-14.6,41.2-9.6
	c17.5,6.1,29,21.6,38.8,36.6c5.1-16.3,12.2-33.3,28.8-40.6c16.1-7,28.9,0.2,38.7,13.1c4.7,6.1,9.6,14.5,17.5,16.7
	c9.3,2.6,16.4-4.9,21.9-11.3c5.4-6.3,10.5-13.3,17.9-17.4c7.4-4,16-4.9,24.2-3.7c18.8,2.8,32.2,16.1,43.5,30.6
	c-0.1-7.1,2.5-14.2,7-20.1c7.9-10.4,20.2-14.8,33.1-13.2c32.7,4.3,46.9,36.4,56.1,64.3c11-23.6,26.1-49,54.6-51.7
	C496,68,502,68.7,507.5,71c7.1,2.9,12.3,9.2,19.6,11.5c11.8,3.9,21-7.3,28.2-14.9c6.5-6.9,13.7-14.6,23.4-16.9
	c9.4-2.2,18.4,5.3,24.7,11.4c7.2,7,14.3,17.9,24.5,20.6c7.1,1.9,12.9-1.9,18.5-5.8c5.6-4,11.2-7.2,18.2-8.2
	c32.8-4.8,51.8,25.7,64,51.5c9.3-28,23.5-60,56.2-64.4c12.8-1.7,25.1,2.8,33.1,13.2c4.5,5.9,7.1,13,7,20
	c9.5-12.3,20.5-23.7,35.5-28.6c8.3-2.7,17.7-3.4,26.1-0.8c8.2,2.6,14.1,8.2,19.5,14.6c5.1,6,10.6,14.4,18.7,16.6
	c9.4,2.6,16.1-4.9,21.3-11.6c9.4-12.2,18.8-24.1,36.1-20.4c20.7,4.4,29.4,24.4,35.3,42.8c8.9-13.6,18.9-27.5,33.9-34.6
	c13-6.2,30.1-6.8,41.7,2.9c6.4,5.4,9.3,13.9,15.7,19.3c8.7,7.2,18.5,1.3,26.1-4.3c9.5-6.8,18.7-13.7,29.4-15v5
	c-3.8,0.4-7.7,1.5-11.5,3.6c-12.4,6.9-26,24.3-41.9,17.8c-7.7-3.2-11.5-10.8-16.2-17.1c-6.4-8.6-16-12.3-26.6-11.5
	c-23.5,1.8-37.6,23.1-49.3,41.1c-1.2,1.8-3.9,1.5-4.6-0.6c-5.4-18.1-12.9-40.9-34.3-44.6c-18.5-3.3-25,15.3-35.9,25.9
	c-8.6,8.3-20.1,9-29.5,1.3C901,79.9,894.8,63,875,63.1c-24.7,0-40.7,21.2-53.9,39.3c-1.9,2.5-6,0.3-4.3-2.5
	c6-10.3,2.3-22.8-5.8-30.9c-9.3-9.2-22.7-10.2-34.6-5.8c-27.2,9.9-37.1,39.6-45.1,64.7c-0.6,1.9-3.6,2.7-4.6,0.6
	c-11.2-24.8-30.1-61.8-63.8-54.2c-11.9,2.7-19.7,15.1-32.7,14.1c-8.5-0.6-15.3-6.9-21-12.7c-7-7.2-14-16.6-24-19.6
	c-9.9-3-19.4,7.7-25.5,14.1c-6,6.3-12.2,13.8-20.6,16.9c-10.7,3.9-18.8-2.3-27.4-8c-15.3-10.1-34.8-5.2-47.8,6.5
	c-12.8,11.4-19.9,27.6-26.9,42.9c-0.9,2.1-4,1.3-4.6-0.6c-8-25.1-17.9-54.8-45.1-64.7c-11.6-4.2-24.7-3.4-34,5.2
	c-8.5,8-12.6,20.9-6.4,31.5c1.7,2.8-2.5,5.1-4.3,2.5c-11.6-16-24.9-34.1-45.5-38.4c-10.2-2.1-20.8-0.5-28.8,6.5
	c-5.6,4.9-9.7,11.2-14.8,16.5c-8.2,8.7-19.8,13-30.3,5.3c-11.3-8.3-16-26-31.1-28.7c-25.7-4.6-36.7,25.6-42.4,44.6
	c-0.6,2.1-3.4,2.4-4.6,0.6c-11.6-17.9-25.8-39.4-49.3-41.1C85.6,66.9,76,70.6,69.6,79.3c-4.7,6.3-8.5,14-16.2,17.1
	c-16,6.5-29.5-10.9-41.9-17.8C7.7,76.5,3.8,75.4,0,75.1V70.2z"/>
</svg>
