<?xml version="1.0" encoding="UTF-8"?>
<svg xmlns="http://www.w3.org/2000/svg" version="1.1" viewBox="0 0 1920 345">
  <defs>
    <style>
      .cls-1 {
        fill: #98cc4e;
      }

      .cls-2 {
        fill: #cbff88;
      }

      .cls-3 {
        fill: #e1ffb6;
      }
    </style>
  </defs>
  <!-- Generator: Adobe Illustrator 28.6.0, SVG Export Plug-In . SVG Version: 1.2.0 Build 709)  -->
  <g>
    <g id="Calque_1">
      <polygon points="0 0 0 21.6 0 31.5 0 143.3 0 153.4 0 345 1920 345 1920 308.6 1920 298.8 1920 214.7 1920 204.7 1920 0 0 0"/>
      <path class="cls-2" d="M0,0v31.5c84,9,167.9,17.9,251.9,26.9,71.3,7.6,142.6,15.6,214.2,18.5,69.8,2.8,139.9,1.7,209.1,12,66.4,9.9,131.6,27.8,198.6,33.3,70.8,5.9,141.6-5.8,212.5-5.5,69.1.2,137.9,7.5,206.5,15.3,71.1,8.2,142,17.5,212.9,27,138.1,18.5,276.2,37.1,414.3,55.7V0H0Z"/>
      <path class="cls-1" d="M1920,345v-46.2c-99.1-9.7-198.2-19.5-297.2-30.2-36.3-3.9-72.6-8.5-108.5-15.1-34.1-6.2-68-13.9-102.1-20-69.9-12.5-139.2-12.2-209.9-9.8-143.7,5-286.4-6.5-428.8-24.9-71.9-9.2-143.6-19.8-215.4-29.8-70.5-9.8-141.6-19.4-213-16.2-35.1,1.6-69.9,6.7-104.9,10.1-34.6,3.4-69.1,4-103.7,1.1-45.9-3.9-91.2-12.6-136.5-20.7v201.7h1920Z"/>
      <path class="cls-3" d="M1920,214.8v84.1c-99.1-9.7-198.2-19.5-297.2-30.2-36.3-3.9-72.6-8.5-108.5-15.1-34.1-6.2-68-13.9-102.1-20-69.9-12.5-139.2-12.2-209.9-9.8-143.7,5-286.4-6.5-428.8-24.9-71.9-9.2-143.6-19.8-215.4-29.8-70.5-9.8-141.6-19.4-213-16.2-35.1,1.6-69.9,6.7-104.9,10.1-34.6,3.4-69.1,4-103.7,1.1-45.9-4-91.2-12.7-136.5-20.8V31.5c84,9,167.9,17.9,251.9,26.9,71.3,7.6,142.6,15.6,214.2,18.5,69.8,2.8,139.9,1.7,209.1,12,66.4,9.9,131.6,27.8,198.6,33.3,70.8,5.9,141.6-5.8,212.5-5.5,69.1.2,137.9,7.5,206.5,15.3,71.1,8.2,142,17.5,212.9,27,138.1,18.6,276.2,37.2,414.3,55.8Z"/>
      <path d="M1920,204.8c-119.2-16-238.4-32-357.6-48.1-69.9-9.4-139.9-18.9-209.9-27.5-70.2-8.7-140.6-17.3-211.3-20.9-35.2-1.8-70.5-2.1-105.7-.4-35.7,1.8-71.3,5.2-107,5.9-70.1,1.4-137.8-14-206.3-26.9-68.2-12.9-136.2-16.7-205.3-18.4-71.5-1.8-142.5-7.1-213.7-14.6C202.1,43.3,101.1,32.5,0,21.6v9.9c84,9,167.9,17.9,251.9,26.9,71.3,7.6,142.6,15.6,214.2,18.5,69.8,2.8,139.9,1.7,209.1,12,66.4,9.9,131.6,27.8,198.6,33.3,70.8,5.9,141.6-5.8,212.5-5.5,69.1.2,137.9,7.5,206.5,15.3,71.1,8.2,142,17.5,212.9,27,138.1,18.5,276.2,37.1,414.3,55.7v-9.9Z"/>
      <path d="M1920,298.8c-99.1-9.7-198.2-19.5-297.2-30.2-36.3-3.9-72.6-8.5-108.5-15.1-34.1-6.2-68-13.9-102.1-20-69.9-12.5-139.2-12.2-209.9-9.8-143.7,5-286.4-6.5-428.8-24.9-71.9-9.2-143.6-19.8-215.4-29.8-70.5-9.8-141.6-19.4-213-16.2-35.1,1.6-69.9,6.7-104.9,10.1-34.6,3.4-69.1,4-103.7,1.1-45.9-3.9-91.2-12.6-136.5-20.7v10.1c28.7,5.1,57.3,10.4,86.1,14.6,33.7,4.9,67.7,8.4,101.8,8.1,35.1-.3,69.8-5.1,104.6-8.9,71.5-7.8,141.9-4.1,213.1,4.8,72.6,9.2,145,20.3,217.6,30.1,141.1,19.1,283.2,35.1,425.8,33,70.8-1,141.9-7.4,212.6.7,70,8,138.3,27,208.2,36.4,71.1,9.5,142.8,15.5,214.2,22.7l136.1,13.7v-9.8h0Z"/>
    </g>
  </g>
</svg>