<?xml version="1.0" encoding="utf-8"?>
<!-- Generator: Adobe Illustrator 27.9.4, SVG Export Plug-In . SVG Version: 9.03 Build 54784)  -->
<svg version="1.1" id="Calque_1" xmlns="http://www.w3.org/2000/svg" xmlns:xlink="http://www.w3.org/1999/xlink" x="0px" y="0px"
	 viewBox="0 0 680.9 78.3" style="enable-background:new 0 0 680.9 78.3;" xml:space="preserve">
<style type="text/css">
	.st0{fill:#0E478C;}
	.st1{fill:#1F5CB5;}
</style>
<path class="st0" d="M0,0v56.6c3.7-0.5,7.2-2.2,10.1-5.2c3.9,9.5,10.5,17.3,18.4,22c1.9-10.9,8.9-25,17.1-19.8
	c3.2,2,4.8,6.4,7.7,8.8c6.8,5.4,15.2-2.2,22.3-7.1c7-4.9,19.9-2.9,18.6,6.8c4.9-4.1,9.8-8.2,14.7-12.3c6.2,8.1,15.5,16.8,23.3,11.2
	c3.5-2.5,5.5-7.4,9.2-9.6c5.2-3.1,11.5,0.7,15.5,5.8c4,5.1,6.6,11.6,11,16.1c1.6,1.7,3.6,3.1,5.6,2.6c2.3-0.5,3.7-3.1,5-5.4
	c3.9-6.7,9.1-12.9,15.7-14.9c6.6-1.9,14.7,1.8,16.8,9.6c3.5-15.1,24.8-16.6,29.7-2c6.4-5.6,12.8-11.3,19.2-16.9
	C264.3,53.6,270,60,276.3,65c1.9,1.5,4,3,6.3,3c10.4,0,10.9-26.1,21.1-23.9c5.3,9.8,12,18.5,19.8,25.5c-0.7-9.8,5.4-19.3,13.2-22.1
	c1.2-0.4,2.5-0.7,3.7-0.9c1.3,0.2,2.5,0.4,3.7,0.9c7.8,2.9,13.9,12.3,13.2,22.1c7.8-7,14.5-15.7,19.8-25.5
	c10.2-2.2,10.7,23.9,21.1,23.9c2.3,0,4.4-1.4,6.3-3c6.4-5.1,12-11.4,16.7-18.7c6.4,5.6,12.8,11.3,19.2,16.9
	c4.9-14.5,26.2-13.1,29.7,2c2.1-7.8,10.2-11.5,16.8-9.6c6.6,1.9,11.8,8.1,15.7,14.9c1.3,2.3,2.8,4.9,5,5.4c2.1,0.5,4.1-1,5.6-2.6
	c4.4-4.6,7-11,11-16.1c4-5.1,10.3-8.8,15.5-5.8c3.7,2.2,5.7,7.1,9.2,9.6c7.8,5.6,17.2-3.1,23.3-11.2c4.9,4.1,9.8,8.2,14.7,12.3
	c-1.4-9.7,11.5-11.8,18.6-6.8c7,4.9,15.5,12.5,22.3,7.1c3-2.4,4.6-6.8,7.7-8.8c8.2-5.2,15.2,8.9,17.1,19.8
	c7.9-4.7,14.4-12.5,18.4-22c2.8,3,6.4,4.7,10.1,5.2V0H0z"/>
<path d="M673.9,49.8c-0.9-0.9-2.3-0.9-2.9,0.5c-3.6,8.4-8.9,15-15.6,19.7c-1.8-7.7-5.6-16.7-12-19.2c-3.3-1.3-6.7-0.1-9.3,2.5
	c-4.1,4.2-6.3,10.1-12.6,8.4c-8.5-2.3-14.3-11.3-23.5-11.2c-4.6,0.1-10.1,2.4-11.5,7.6c-4.1-3.4-8.1-6.8-12.2-10.1
	c-0.7-0.5-1.7-0.3-2.3,0.4c-6.1,7.8-16,17.8-24.1,7.9c-2.6-3.2-5-6.6-8.7-7.7c-3.8-1.1-7.9,0.4-11.1,2.8c-3.5,2.6-6.1,6.5-8.5,10.4
	c-2.5,4.1-7.8,15.2-12.9,10.7c-1.5-1.3-2.5-4.1-3.7-5.8c-1.4-2.1-2.9-4.1-4.5-5.9c-3-3.2-6.6-5.9-10.5-7c-6.4-1.8-13.4,0.7-17.2,6.8
	c-6.4-12.1-24.2-13.1-30.6-0.5c-5.9-5.2-11.8-10.3-17.7-15.5c-0.6-0.5-1.8-0.4-2.3,0.4c-3.1,4.7-6.5,9.1-10.3,12.9
	c-3.1,3.1-8.7,9.6-13.2,7.7c-4.8-2-6.9-10.7-9.2-15.4c-1.9-3.9-6.2-10.3-10.8-8c-1.5,0.7-2.2,3-3.1,4.5c-1.7,2.9-3.6,5.7-5.6,8.3
	c-2.8,3.7-5.8,7.2-9.1,10.4c-1.4-10.6-9.3-20.8-18.7-20.8c-9.3,0-17.2,10.2-18.7,20.8c-3.2-3.2-6.3-6.7-9.1-10.4
	c-1.9-2.5-3.6-5.1-5.2-7.7c-1-1.6-1.8-4.3-3.4-5.1c-4.6-2.3-8.8,4.1-10.8,8c-2.4,4.8-4.4,13.4-9.2,15.4c-4.4,1.9-10.1-4.6-13.2-7.7
	c-3.8-3.9-7.2-8.2-10.3-12.9c-0.5-0.7-1.7-0.9-2.3-0.4c-5.9,5.2-11.8,10.3-17.7,15.5c-6.5-12.6-24.2-11.7-30.6,0.5
	c-3.3-5.2-8.9-7.9-14.5-7.3c-8.1,0.8-14.5,7.9-19,15.4c-1.7,2.8-3.7,6.8-7,4.5c-2.2-1.5-4-4.3-5.6-6.7c-2.8-4.3-5.2-9.2-8.7-12.7
	c-6.2-6.2-14-7.4-20-0.2c-3.8,4.6-7,8.7-12.9,6.7c-5.4-1.8-9.8-7-13.5-11.7c-0.5-0.7-1.6-0.9-2.3-0.4c-4.1,3.4-8.1,6.8-12.2,10.1
	c-1.4-5.2-6.8-7.6-11.5-7.6c-9.2-0.1-14.9,8.9-23.5,11.2c-6.3,1.7-8.5-4.2-12.6-8.4c-2.6-2.7-6-3.8-9.3-2.5
	c-6.4,2.5-10.2,11.5-12,19.2c-6.7-4.7-12-11.4-15.6-19.7c-0.6-1.4-2.1-1.3-2.9-0.5c-2.1,2.1-4.4,3.3-6.9,4.1c0,0.9,0,1.8,0,2.7v1.9
	c2.8-0.7,5.3-1.9,7.7-3.8c4.3,8.8,10.5,16,18.1,20.6c1,0.6,2.5,0.1,2.8-1.3c1.2-6.4,5-19.5,12-19.2c4.1,0.1,6.2,5.7,9,8.6
	c2.4,2.4,5.3,3.5,8.4,3.2c7.5-0.7,12.5-7.7,19.3-10.5c4.3-1.8,14.4-2.1,13.6,6.1c-0.2,1.7,1.7,2.8,2.8,1.9c4.5-3.8,9-7.5,13.6-11.3
	c6.2,7.6,15.9,16.5,24.7,10.2c4.5-3.3,7.1-10.9,13.1-10.4c6.5,0.6,10.7,7.7,14.2,13.5c2.7,4.5,6,10.5,10.8,12
	c5.4,1.7,8-4.6,10.7-8.8c3.5-5.3,8.2-10.4,14-11.6c5.4-1.1,11.7,1.8,13.7,8.2c0.6,2,3,2.2,3.6,0c3.5-13.5,21.8-14.1,26.4-1.5
	c0.4,1,1.8,1.5,2.6,0.8c6-5.3,12-10.5,18-15.8c3.1,4.5,6.4,8.7,10.2,12.3c3.3,3.3,7.2,7.4,11.6,8.3c5.7,1.3,9.5-4.2,12-9.5
	c1.2-2.6,5.7-16.4,9.7-14.4c0.5,0.3,1.1,1.9,1.5,2.5c0.8,1.3,1.6,2.6,2.4,3.8c1.4,2.2,3,4.4,4.5,6.4c3.6,4.6,7.5,8.8,11.7,12.6
	c1.1,1,2.9-0.4,2.8-1.9c-0.4-9.7,6.5-20.6,15.1-20.6c8.7,0,15.6,10.9,15.1,20.6c-0.1,1.6,1.7,3,2.8,1.9c4.2-3.8,8.1-8,11.7-12.6
	c1.6-2.1,3.1-4.2,4.5-6.4c0.8-1.2,2.7-5.7,3.9-6.3c3.9-2.1,8.4,11.8,9.7,14.4c2.5,5.3,6.3,10.8,12,9.5c4.3-1,8.2-5.1,11.6-8.3
	c3.8-3.7,7.1-7.8,10.2-12.3c6,5.3,12,10.5,18,15.8c0.8,0.7,2.2,0.2,2.6-0.8c4.6-12.6,22.9-12,26.4,1.5c0.6,2.2,3,2,3.6,0
	c2-6.4,8.3-9.3,13.7-8.2c5.8,1.1,10.5,6.2,14,11.6c2.8,4.2,5.4,10.5,10.7,8.8c4.8-1.5,8-7.5,10.8-12c3.5-5.7,7.7-12.9,14.2-13.5
	c6-0.6,8.6,7.1,13.1,10.4c8.8,6.3,18.5-2.6,24.7-10.2c4.5,3.8,9,7.5,13.6,11.3c1.1,0.9,3-0.3,2.8-1.9c-0.8-8,8.9-7.9,13.2-6.2
	c6.9,2.6,12,9.9,19.6,10.6c3.1,0.3,6.1-0.8,8.4-3.2c2.7-2.8,4.7-8.1,8.7-8.6c7.2-0.8,11.1,12.9,12.4,19.2c0.3,1.5,1.7,2,2.8,1.3
	c7.6-4.7,13.9-11.8,18.1-20.6c2.3,1.9,4.9,3.1,7.7,3.8v-1.9c0-0.9,0-1.8,0-2.7C678.3,53.1,676,51.8,673.9,49.8z"/>
<path class="st1" d="M0,0v30.5C3.7,30.1,7.2,29,10.1,27c3.9,6.3,10.5,11.5,18.4,14.6c1.9-7.2,8.9-16.6,17.1-13.2
	c3.2,1.3,4.8,4.3,7.7,5.9c6.8,3.6,15.2-1.4,22.3-4.7c7-3.3,19.9-1.9,18.6,4.5c4.9-2.7,9.8-5.4,14.7-8.1c6.2,5.4,15.5,11.2,23.3,7.4
	c3.5-1.7,5.5-4.9,9.2-6.4c5.2-2,11.5,0.4,15.5,3.8c4,3.4,6.6,7.7,11,10.7c1.6,1.1,3.6,2.1,5.6,1.8c2.3-0.3,3.7-2.1,5-3.6
	c3.9-4.5,9.1-8.6,15.7-9.9c6.6-1.3,14.7,1.2,16.8,6.3c3.5-10,24.8-11,29.7-1.3c6.4-3.7,12.8-7.5,19.2-11.2
	c4.6,4.8,10.3,9.1,16.7,12.4c1.9,1,4,2,6.3,2c10.4,0,10.9-17.4,21.1-15.9c5.3,6.5,12,12.3,19.8,17c-0.7-6.5,5.4-12.8,13.2-14.7
	c1.2-0.3,2.5-0.5,3.7-0.6c1.3,0.1,2.5,0.3,3.7,0.6c7.8,1.9,13.9,8.2,13.2,14.7c7.8-4.7,14.5-10.5,19.8-17
	c10.2-1.5,10.7,15.9,21.1,15.9c2.3,0,4.4-1,6.3-2c6.4-3.4,12-7.6,16.7-12.4c6.4,3.7,12.8,7.5,19.2,11.2c4.9-9.7,26.2-8.7,29.7,1.3
	c2.1-5.2,10.2-7.6,16.8-6.3c6.6,1.3,11.8,5.4,15.7,9.9c1.3,1.5,2.8,3.2,5,3.6c2.1,0.3,4.1-0.7,5.6-1.8c4.4-3,7-7.3,11-10.7
	c4-3.4,10.3-5.9,15.5-3.8c3.7,1.4,5.7,4.7,9.2,6.4c7.8,3.7,17.2-2.1,23.3-7.4c4.9,2.7,9.8,5.4,14.7,8.1c-1.4-6.4,11.5-7.8,18.6-4.5
	c7,3.3,15.5,8.3,22.3,4.7c3-1.6,4.6-4.5,7.7-5.9c8.2-3.5,15.2,5.9,17.1,13.2c7.9-3.1,14.4-8.3,18.4-14.6c2.8,2,6.4,3.1,10.1,3.5V0H0
	z"/>
<g>
	<g>
		<path d="M24.9,27.8c2.7-6.6,10.5-8.5,16.9-8.4c3.4,0,7.7,0.1,10.6,2c1.4,0.9,2.4,2.1,4,2.7c1.9,0.6,3.9,0,5.7-0.5
			c4.4-1.1,8.6-2.6,12.7-4.4c0.9-0.4,1.1-1.8,0.7-2.6c-0.5-1-1.6-1.1-2.6-0.7c-3.7,1.7-7.6,3-11.6,4c-0.9,0.2-2,0.6-3,0.6
			c-0.8,0-1.4-0.3-2-0.8c-1.5-1.2-2.9-2.2-4.7-2.9c-3.6-1.3-7.9-1.4-11.7-1.3c-3.8,0.1-7.7,0.9-11.1,2.8c-3.4,1.9-6.1,4.7-7.6,8.4
			c-0.4,0.9,0.4,2.1,1.3,2.3C23.6,29.5,24.5,28.8,24.9,27.8L24.9,27.8z"/>
	</g>
</g>
<g>
	<g>
		<path d="M130.4,22.1c3.9-0.6,7.1-3.1,10.7-4.7c1.6-0.7,3.4-1.2,5.2-0.9c2.2,0.4,4.1,1.6,5.9,2.8c7.1,4.7,15.3,8.9,24.1,8.4
			c4.3-0.2,8.6-1.7,11.5-5c1.6-1.8-1-4.4-2.7-2.7c-5.1,5.7-14,4.3-20.4,1.8c-4.3-1.6-8-4.1-11.9-6.6c-3.6-2.3-7.6-3.4-11.7-1.9
			c-4,1.4-7.4,4.5-11.7,5.1c-1,0.2-1.6,1.4-1.3,2.3C128.4,21.8,129.4,22.2,130.4,22.1L130.4,22.1z"/>
	</g>
</g>
<g>
	<g>
		<path d="M240.7,21.7c2.3,0.7,4.7,0,6.6-1.4c1.8-1.3,3.2-3,5-4.2c0.7-0.5,1.6-0.9,2.5-0.8c1.2,0.1,2.3,0.9,3.4,1.5
			c2.5,1.3,4.9,2.7,7.4,4c2.4,1.3,4.8,2.6,7.2,3.9c1.1,0.6,2.2,1.2,3.3,1.8c1.1,0.6,2.3,1.4,3.6,1.7c4.1,1,7.5-3.9,9.2-6.9
			c2.1-3.7,3.6-7.9,7.1-10.6c0.8-0.6,0.7-2,0-2.7c-0.8-0.8-1.9-0.6-2.7,0c-2.9,2.3-4.6,5.7-6.3,9c-0.8,1.6-1.7,3.3-2.8,4.7
			c-0.7,0.9-2.4,3.1-3.7,2.8c-1-0.2-2.1-1.1-2.9-1.6c-1.2-0.7-2.5-1.3-3.7-2c-2.2-1.2-4.5-2.5-6.7-3.7c-2.3-1.3-4.6-2.5-6.9-3.8
			c-2.1-1.2-4.2-2.3-6.6-1.9c-2.4,0.4-4.3,2-5.9,3.6c-1.5,1.4-3.5,3.5-5.8,2.8C239.4,17.4,238.4,21,240.7,21.7L240.7,21.7z"/>
	</g>
</g>
<g>
	<g>
		<path d="M306.6,13.8c2.2,4.5,5.8,8.3,10.2,10.6c0.9,0.5,2.1,0.3,2.6-0.7c0.5-0.9,0.3-2.1-0.7-2.6c-1-0.5-2-1.1-2.9-1.8
			c0,0-0.4-0.4-0.1-0.1c-0.1-0.1-0.2-0.2-0.3-0.2c-0.2-0.2-0.4-0.4-0.7-0.6c-0.4-0.4-0.8-0.8-1.2-1.2c-0.4-0.4-0.8-0.8-1.1-1.3
			c-0.1-0.1-0.2-0.2-0.2-0.3c-0.1-0.2,0.2,0.2,0-0.1c-0.2-0.2-0.4-0.5-0.5-0.8c-0.6-0.9-1.2-1.9-1.7-3c-0.4-0.9-1.8-1.2-2.6-0.7
			C306.4,11.8,306.1,12.8,306.6,13.8L306.6,13.8z"/>
	</g>
</g>
<g>
	<g>
		<path d="M367.4,21c4-1.9,8.3-4,12.8-4.1c1.9,0,3.8,0.2,5.5,0.9c1.8,0.8,3,2,4.3,3.4c1.4,1.5,3,2.7,5,3.2c2,0.5,4.2,0.2,6.2-0.4
			c4.4-1.4,8.4-4.3,12.3-6.8c2-1.3,0.1-4.6-1.9-3.2c-2.1,1.4-4.3,2.8-6.4,4c-1.8,1.1-3.7,2.1-5.8,2.6c-1.8,0.5-3.8,0.5-5.3-0.7
			c-1.6-1.2-2.7-2.9-4.3-4c-7.5-5.5-16.9-1.6-24.3,1.9C363.4,18.8,365.3,22,367.4,21L367.4,21z"/>
	</g>
</g>
<g>
	<g>
		<path d="M474.8,22.9c4.7-1,9.4,0.1,13.7,1.9c4.5,1.8,8.5,4.5,12.9,6.3c4.1,1.7,8.6,2.1,12.5-0.3c3.1-1.9,5.3-5,8.2-7.2
			c4.1-3.1,9.3-2.7,14.2-2.3c2.4,0.2,2.4-3.6,0-3.8c-4.5-0.4-9.2-0.6-13.5,1.3c-3.6,1.6-6,4.7-8.8,7.3c-1.3,1.2-2.8,2.2-4.5,2.5
			c-2.2,0.5-4.6-0.2-6.6-1c-2.2-0.9-4.3-2.2-6.4-3.3c-2.2-1.2-4.4-2.2-6.7-3.2c-5.1-2-10.5-3.1-15.9-2
			C471.5,19.7,472.5,23.4,474.8,22.9L474.8,22.9z"/>
	</g>
</g>
<g>
	<g>
		<path d="M594.3,20.6c4.2-1.2,8.7-1.3,13-0.2c4.2,1.1,7.7,3.9,11.9,5.1c4,1.2,7.8,0.3,11.4-1.4c3.3-1.5,6.7-3.9,10.5-4.1
			c4-0.2,7.9,1.8,9.9,5.3c1.2,2.1,4.5,0.2,3.2-1.9c-2.1-3.4-5.5-6-9.5-6.8c-4.2-0.9-8.1,0.4-11.9,2.2c-3.4,1.7-7.1,4-11,3.4
			c-2.2-0.3-4.2-1.4-6.1-2.4c-2.1-1.1-4.2-2.2-6.5-2.9c-5.1-1.6-10.7-1.6-15.8-0.1C591,17.6,592,21.2,594.3,20.6L594.3,20.6z"/>
	</g>
</g>
</svg>
