<?xml version="1.0" encoding="UTF-8"?>
<svg xmlns="http://www.w3.org/2000/svg" version="1.1" viewBox="0 0 30 30">
  <defs>
    <style>
      .cls-1 {
        fill: #fff;
      }
    </style>
  </defs>
  <!-- Generator: Adobe Illustrator 28.6.0, SVG Export Plug-In . SVG Version: 1.2.0 Build 709)  -->
  <g>
    <g id="Layer_1">
      <g id="Calque_1">
        <g id="Calque_2">
          <path class="cls-1" d="M5.4,14.8s8.1-3.3,10.9-4.5c1.1-.5,4.7-2,4.7-2,0,0,1.7-.7,1.5.9,0,.7-.4,3-.8,5.4-.6,3.5-1.2,7.4-1.2,7.4,0,0-.1,1.1-.9,1.3-.8.2-2.1-.7-2.3-.8-.2-.1-3.5-2.2-4.7-3.3-.3-.3-.7-.8,0-1.5,1.7-1.5,3.7-3.5,4.9-4.7.6-.6,1.1-1.9-1.2-.3-3.3,2.3-6.6,4.5-6.6,4.5,0,0-.7.5-2.2,0-1.4-.4-3-1-3-1,0,0-1.1-.6.9-1.4h0Z"/>
        </g>
      </g>
    </g>
  </g>
</svg>